<?xml version="1.0" encoding="iso-8859-1"?>
<!-- Uploaded to: SVG Repo, www.svgrepo.com, Generator: SVG Repo Mixer Tools -->
<svg height="800px" width="800px" version="1.1" id="Layer_1" xmlns="http://www.w3.org/2000/svg" xmlns:xlink="http://www.w3.org/1999/xlink" 
	 viewBox="0 0 512 512" xml:space="preserve">
<path style="fill:#464655;" d="M430.313,89.824H37.364c-15.977,0-28.93,12.952-28.93,28.93v284.514
	c0,22.502,18.241,40.742,40.742,40.742H418.5c22.502,0,40.742-18.241,40.742-40.742V118.754
	C459.243,102.776,446.29,89.824,430.313,89.824z"/>
<path style="opacity:0.1;enable-background:new    ;" d="M43.296,403.267V118.754c0-15.978,12.953-28.93,28.93-28.93H37.364
	c-15.977,0-28.93,12.952-28.93,28.93v284.514c0,22.502,18.241,40.742,40.742,40.742h34.862
	C61.537,444.01,43.296,425.769,43.296,403.267z"/>
<path style="fill:#353540;" d="M418.5,444.011H49.177c-22.502,0-40.742-18.241-40.742-40.742v45.46
	c0,17.511,14.196,31.706,31.706,31.706h387.395c17.511,0,31.706-14.196,31.706-31.706v-45.46
	C459.243,425.769,441.002,444.011,418.5,444.011z"/>
<circle style="opacity:0.1;enable-background:new    ;" cx="233.834" cy="280.414" r="39.149"/>
<circle style="opacity:0.1;enable-background:new    ;" cx="101.516" cy="280.414" r="39.149"/>
<circle style="opacity:0.1;enable-background:new    ;" cx="366.163" cy="280.414" r="39.149"/>
<circle style="opacity:0.1;enable-background:new    ;" cx="233.834" cy="174.703" r="39.149"/>
<circle style="opacity:0.1;enable-background:new    ;" cx="101.516" cy="174.703" r="39.149"/>
<circle style="opacity:0.1;enable-background:new    ;" cx="366.163" cy="174.703" r="39.149"/>
<circle style="opacity:0.1;enable-background:new    ;" cx="233.834" cy="386.124" r="39.149"/>
<circle style="opacity:0.1;enable-background:new    ;" cx="101.516" cy="386.124" r="39.149"/>
<circle style="opacity:0.1;enable-background:new    ;" cx="366.163" cy="386.124" r="39.149"/>
<circle style="fill:#E695A8;" cx="233.834" cy="266.919" r="39.149"/>
<circle style="fill:#FFA6BB;" cx="101.516" cy="266.919" r="39.149"/>
<circle style="fill:#CC8495;" cx="366.163" cy="266.919" r="39.149"/>
<circle style="fill:#9E6F91;" cx="233.834" cy="161.208" r="39.149"/>
<circle style="fill:#BA82AA;" cx="101.516" cy="161.208" r="39.149"/>
<circle style="fill:#855D7A;" cx="366.163" cy="161.208" r="39.149"/>
<circle style="fill:#E65A5B;" cx="233.834" cy="372.629" r="39.149"/>
<circle style="fill:#FF6465;" cx="101.516" cy="372.629" r="39.149"/>
<circle style="fill:#CC5051;" cx="366.163" cy="372.629" r="39.149"/>
<path style="fill:#353540;" d="M426.63,138.252l70.773-70.773c8.216-8.216,8.216-21.537,0-29.753s-21.537-8.216-29.753,0
	l-70.773,70.773L426.63,138.252z"/>
<path style="fill:#BA82AA;" d="M359.974,166.181l8.975,8.975c9.603,9.603,25.394,8.832,34.016-1.66l20.112-24.474
	c8.581-10.442,7.837-25.691-1.721-35.249l0,0c-9.557-9.557-24.806-10.301-35.249-1.721l-24.474,20.112
	C351.141,140.787,350.371,156.578,359.974,166.181z"/>
<path style="opacity:0.1;enable-background:new    ;" d="M373.562,144.093l24.474-20.112c8.164-6.709,19.26-7.692,28.283-3.242
	c-1.24-2.517-2.879-4.881-4.963-6.965l0,0c-9.557-9.557-24.806-10.301-35.249-1.721l-24.474,20.112
	c-10.492,8.622-11.264,24.414-1.66,34.016l8.975,8.975c0.498,0.498,1.018,0.963,1.549,1.405
	C362.412,166.882,363.614,152.268,373.562,144.093z"/>
<path d="M233.838,314.453c26.238,0,47.583-21.346,47.583-47.583s-21.346-47.584-47.583-47.584s-47.584,21.346-47.584,47.584
	C186.254,293.108,207.601,314.453,233.838,314.453z M233.838,236.155c16.936,0,30.715,13.778,30.715,30.716
	c0,16.936-13.778,30.715-30.715,30.715s-30.716-13.778-30.716-30.715C203.124,249.932,216.902,236.155,233.838,236.155z"/>
<path d="M101.517,219.286c-26.238,0-47.583,21.346-47.583,47.584s21.346,47.583,47.583,47.583s47.584-21.346,47.584-47.583
	C149.101,240.633,127.755,219.286,101.517,219.286z M101.517,297.584c-16.936,0-30.715-13.778-30.715-30.715
	c0-16.937,13.778-30.716,30.715-30.716s30.716,13.778,30.716,30.716C132.232,283.805,118.453,297.584,101.517,297.584z"/>
<path d="M366.16,314.453c26.238,0,47.583-21.346,47.583-47.583s-21.346-47.584-47.583-47.584s-47.584,21.346-47.584,47.584
	C318.576,293.108,339.922,314.453,366.16,314.453z M366.16,236.155c16.936,0,30.715,13.778,30.715,30.716
	c0,16.936-13.778,30.715-30.715,30.715c-16.936,0-30.716-13.778-30.716-30.715C335.445,249.932,349.224,236.155,366.16,236.155z"/>
<path d="M233.838,208.742c26.238,0,47.583-21.346,47.583-47.583s-21.346-47.584-47.583-47.584s-47.584,21.346-47.584,47.584
	S207.601,208.742,233.838,208.742z M233.838,130.444c16.936,0,30.715,13.778,30.715,30.716c0,16.936-13.778,30.715-30.715,30.715
	s-30.716-13.778-30.716-30.715C203.124,144.221,216.902,130.444,233.838,130.444z"/>
<path d="M101.517,113.576c-26.238,0-47.583,21.346-47.583,47.584s21.346,47.583,47.583,47.583s47.584-21.346,47.584-47.583
	S127.755,113.576,101.517,113.576z M101.517,191.873c-16.936,0-30.715-13.778-30.715-30.715c0-16.937,13.778-30.716,30.715-30.716
	s30.716,13.778,30.716,30.716C132.232,178.095,118.453,191.873,101.517,191.873z"/>
<path d="M233.838,420.163c26.238,0,47.583-21.346,47.583-47.583s-21.346-47.584-47.583-47.584s-47.584,21.346-47.584,47.584
	S207.601,420.163,233.838,420.163z M233.838,341.864c16.936,0,30.715,13.778,30.715,30.716c0,16.936-13.778,30.715-30.715,30.715
	s-30.716-13.778-30.716-30.715C203.124,355.643,216.902,341.864,233.838,341.864z"/>
<path d="M101.517,324.995c-26.238,0-47.583,21.346-47.583,47.584s21.346,47.583,47.583,47.583s47.584-21.346,47.584-47.583
	S127.755,324.995,101.517,324.995z M101.517,403.294c-16.936,0-30.715-13.778-30.715-30.715c0-16.937,13.778-30.716,30.715-30.716
	s30.716,13.778,30.716,30.716C132.232,389.516,118.453,403.294,101.517,403.294z"/>
<path d="M366.16,420.163c26.238,0,47.583-21.346,47.583-47.583s-21.346-47.584-47.583-47.584s-47.584,21.346-47.584,47.584
	S339.922,420.163,366.16,420.163z M366.16,341.864c16.936,0,30.715,13.778,30.715,30.716c0,16.936-13.778,30.715-30.715,30.715
	c-16.936,0-30.716-13.778-30.716-30.715C335.445,355.643,349.224,341.864,366.16,341.864z"/>
<path d="M40.141,488.821h387.395c22.134,0,40.141-18.007,40.141-40.141c0,0,0-45.439,0-45.46V118.706
	c0-2.924-0.343-5.803-1.009-8.612l36.698-36.698C508.934,67.829,512,60.428,512,52.555c0-7.872-3.067-15.274-8.632-20.84
	c-10.686-10.685-28.336-11.448-39.865-1.672c-0.628,0.532-1.233,1.091-1.815,1.672L412.06,81.342H125.543
	c-4.658,0-8.434,3.776-8.434,8.434c0,4.658,3.776,8.434,8.434,8.434h269.648l-0.308,0.308c-0.033,0.008-0.065,0.018-0.098,0.026
	c-5.089,1.272-9.971,3.607-14.031,6.944l-10.109,8.307c-1.5-0.144-2.999-0.22-4.483-0.22c-26.238,0-47.584,21.346-47.584,47.584
	s21.346,47.583,47.584,47.583c20.43,0,38.268-12.746,44.929-31.896c5.67-6.899,11.346-13.793,17.009-20.698
	c3.944-4.809,7.087-9.875,8.519-16.002l14.192-14.191c0,0,0,277.255,0,277.266c0,15.588-11.096,28.632-25.805,31.65
	c-2.102,0.432-4.276,0.658-6.503,0.658h-79.287c-4.658,0-8.434,3.776-8.434,8.434c0,4.658,3.776,8.434,8.434,8.434h79.287
	c8.917,0,17.933-2.429,25.513-7.153c2.173-1.354,4.257-2.835,6.211-4.489c0.193-0.164,0.392-0.322,0.584-0.488v8.414
	c0,12.833-10.439,23.272-23.272,23.272H40.141c-12.833-0.002-23.272-10.442-23.272-23.274v-8.414
	c6.651,5.812,14.888,9.818,23.594,11.347c2.876,0.505,5.795,0.785,8.715,0.785h256.297c4.658,0,8.434-3.776,8.434-8.434
	c0-4.658-3.776-8.434-8.434-8.434H49.177c-17.814-0.001-32.308-14.495-32.308-32.309V118.706c0-11.301,9.195-20.495,20.497-20.495
	h54.44c4.658,0,8.434-3.776,8.434-8.434c0-4.658-3.776-8.434-8.434-8.434h-54.44C16.762,81.342,0,98.104,0,118.706V403.22v45.46
	C0,470.814,18.007,488.821,40.141,488.821z M366.161,191.873c-16.936,0-30.716-13.778-30.716-30.715
	c0-10.044,4.846-18.976,12.322-24.584c-0.055,0.118-0.103,0.241-0.157,0.36c-1.99,4.405-2.945,9.228-2.772,14.058
	c0.282,7.866,3.605,15.537,9.173,21.104c6.987,6.987,13.799,14.927,23.892,17.324c0.075,0.018,0.15,0.043,0.226,0.06
	C374.431,191.031,370.382,191.873,366.161,191.873z M420.42,134.862c-0.45,3.114-1.823,6.271-3.86,8.757l-20.112,24.474
	c-2.743,3.34-6.979,5.308-11.296,5.299c-8.288-0.018-13.859-7.869-19.213-13.223c-4.389-4.389-5.537-11.48-2.617-17.05
	c3.117-5.946,10.405-9.48,15.198-13.961c0,0,12.944-10.636,12.962-10.651c3.16-2.588,7.227-4.029,11.309-4.029
	c4.766,0,9.242,1.851,12.602,5.211C419.348,123.643,421.218,129.333,420.42,134.862z M434.577,118.329
	c-1.696-3.835-4.116-7.427-7.257-10.568c-0.039-0.039-0.081-0.075-0.12-0.116c-0.359-0.355-0.723-0.704-1.095-1.042
	c-2.764-2.511-5.941-4.585-9.361-6.09c0,0,4.774-4.774,4.779-4.779c0,0,52.075-52.074,52.093-52.092
	c4.851-4.851,12.98-4.845,17.825,0c4.849,4.849,4.84,12.983,0,17.825L434.577,118.329z"/>
</svg>